<svg xmlns="http://www.w3.org/2000/svg" viewBox="0 0 2048 2048"><defs><style>.cls-1{fill:#fff;}</style></defs><g id="Warstwa_5"><path class="cls-1" d="M989.43,1310.8H938.66V959h41.22L1096,1129.85,1212.1,959h40.21V1310.8h-50.26V1063l-92,136.72h-28.65l-92-136.72Z"/><path class="cls-1" d="M1364.37,1010.11c30.45-31.44,73.37-51.9,120.78-51.9,79.85,0,142.73,49.91,162.7,128.76h-49.91c-18.47-52.4-61.39-78.85-112.79-78.85-33.44,0-63.88,14.47-85.84,37.43a129,129,0,0,0,0,178.67c22,23,52.4,37.43,85.84,37.43,52.9,0,97.82-30.45,115.78-83.35h49.41c-20,79.35-83.84,133.25-165.19,133.25a166.55,166.55,0,0,1-120.78-51.9c-29.94-31.94-49.91-75.86-49.91-124.27A183.11,183.11,0,0,1,1364.37,1010.11Z"/><path class="cls-1" d="M966.16,900.34h89.57v27.5H938.66V737.53h27.5Z"/><path class="cls-1" d="M1182.33,764.76h-35.39V900.34h35.39v27.5h-98.28v-27.5h35.39V764.76h-35.39V737.53h98.28Z"/><path class="cls-1" d="M1314.73,787.71c-3.74-16.81-21.89-24-38.17-23.75-12.54.26-26.42,4.54-33.9,14.14-3.73,4.81-5.07,10.95-4.54,17.35,1.34,19.22,22.43,21.62,42.44,23.49,25.63,3.21,57.39,9.88,64.6,39.77a66.39,66.39,0,0,1,1.33,12.28c0,36-35.76,56.85-69.39,56.85-28.83,0-63.8-17.08-67.27-50.44l-.26-5.08,27.22-.53.27,4v-1.06c1.87,17.35,23,26.42,40.3,26.42,20,0,41.91-11.21,41.91-30.43a30.08,30.08,0,0,0-.8-6.4c-3.21-14.15-22.43-16.55-41.11-18.42-29.09-2.94-63.26-9.34-66.19-48.31v.27a50.49,50.49,0,0,1,10.14-35.5c12.55-16.29,35-24.83,56.59-24.83,28.82,0,58.72,15,63.52,49.12Z"/><path class="cls-1" d="M1404.49,927.84V762h-57.72V736.45h142.67V762H1432v165.8Z"/><path class="cls-1" d="M1597.78,872.23H1530c-7.29,17.28-16.74,39.95-22.67,55.61h-29.43l75.86-191.39h20l75.86,191.39h-29.16Zm-57.5-25.64h47L1564,779.91Z"/><path class="cls-1" d="M894,880.78l-13-7.48L645.89,737.53,397.66,880.86v286.63L633,1303.34l12.68,7.33.24.13,248.23-143.31V880.86Zm-35.53,61v205L823,1167.29v-205Zm-71,82v164l-35.52,20.49v-164Zm-71,82v123l0,0-35.48,20.49v-123Z"/></g></svg>