<svg width="1920" height="1080" viewBox="0 0 1920 1080" fill="none" xmlns="http://www.w3.org/2000/svg">
<mask id="mask0_1_110" style="mask-type:alpha" maskUnits="userSpaceOnUse" x="0" y="0" width="1920" height="1080">
<rect opacity="0.5" width="1920" height="1080" fill="#222326"/>
</mask>
<g mask="url(#mask0_1_110)">
<g opacity="0.5" filter="url(#filter0_f_1_110)">
<path fill-rule="evenodd" clip-rule="evenodd" d="M-29.673 84.7305C26.9532 90.0535 61.6238 147.602 109.059 178.983C153.203 208.186 206.098 223.027 240.361 263.37C278.129 307.841 318.744 361.2 313.134 419.274C307.514 477.448 255.924 520.345 211.832 558.707C176.023 589.863 125.943 593.878 84.9506 617.808C43.6963 641.892 16.6035 687.842 -29.673 699.692C-80.5729 712.726 -151.854 728.202 -184.068 686.694C-221.636 638.285 -170.478 566.581 -179.959 506.042C-185.112 473.142 -224.44 452.542 -225.951 419.274C-227.474 385.743 -193.207 361.002 -188.053 327.834C-178.865 268.701 -216.994 201.544 -184.328 151.404C-153.153 103.552 -86.5336 79.3854 -29.673 84.7305Z" fill="#0181A8"/>
<path fill-rule="evenodd" clip-rule="evenodd" d="M794.232 819.739C829.673 813.073 858.401 853.552 894.047 859.019C939.806 866.037 1004.21 818.926 1031.72 856.161C1063.07 898.6 982.122 964.175 1006.36 1011.04C1031.14 1058.97 1127 1034.68 1149.42 1083.76C1167.66 1123.71 1113.3 1162.62 1093.5 1201.82C1076.27 1235.93 1059.9 1269.55 1039.33 1301.76C1017.71 1335.61 1007.44 1388.73 968.318 1397.83C922.584 1408.46 883.687 1357.63 837.598 1348.66C808.487 1342.99 778.938 1350.71 749.632 1355.26C709.223 1361.53 671.108 1387.09 630.705 1380.78C590.165 1374.45 554.836 1348.08 524.786 1320.15C493.064 1290.66 466.794 1254.71 451.513 1214.18C435.888 1172.74 412.788 1121.43 435.53 1083.43C462.963 1037.59 533.51 1041.04 575.156 1007.58C599.088 988.356 601.764 951.087 625.097 931.138C648.302 911.297 682.48 910.813 707.977 894.019C739.937 872.969 756.622 826.814 794.232 819.739Z" fill="#00B0BE"/>
<path fill-rule="evenodd" clip-rule="evenodd" d="M1470.23 336.739C1505.67 330.073 1534.4 370.552 1570.05 376.019C1615.81 383.037 1680.21 335.926 1707.72 373.161C1739.07 415.6 1658.12 481.175 1682.36 528.043C1707.14 575.966 1803 551.683 1825.42 600.757C1843.66 640.706 1789.3 679.615 1769.5 718.819C1752.27 752.933 1735.9 786.548 1715.33 818.758C1693.71 852.607 1683.44 905.733 1644.32 914.828C1598.58 925.46 1559.69 874.628 1513.6 865.656C1484.49 859.99 1454.94 867.711 1425.63 872.26C1385.22 878.534 1347.11 904.086 1306.7 897.776C1266.17 891.445 1230.84 865.084 1200.79 837.147C1169.06 807.656 1142.79 771.709 1127.51 731.182C1111.89 689.745 1088.79 638.431 1111.53 600.431C1138.96 554.593 1209.51 558.04 1251.16 524.583C1275.09 505.356 1277.76 468.087 1301.1 448.138C1324.3 428.297 1358.48 427.813 1383.98 411.019C1415.94 389.969 1432.62 343.814 1470.23 336.739Z" fill="#00B0BE"/>
<path fill-rule="evenodd" clip-rule="evenodd" d="M1112.6 -230.851C1179.73 -233.421 1240.06 -202.325 1293.85 -162.089C1359.67 -112.859 1436.97 -62.4342 1446.84 19.161C1457.38 106.231 1419.04 205.316 1343.76 250.318C1274.38 291.795 1193.43 218.519 1112.6 218.972C1030.75 219.431 948.207 296.375 878.839 252.923C805.77 207.154 779.654 104.244 793.61 19.161C806.278 -58.0768 883.113 -100.441 944.717 -148.723C995.69 -188.674 1047.88 -228.374 1112.6 -230.851Z" fill="#00B0BE"/>
<path fill-rule="evenodd" clip-rule="evenodd" d="M768.608 280.884C842.829 288.918 921.548 310.121 964.075 371.479C1002.66 427.155 966.674 499.207 966.878 566.947C967.083 635.091 1000.79 705.45 965.254 763.593C922.877 832.922 849.805 894.37 768.608 891.32C688.568 888.314 645.299 803.417 586.198 749.357C522.057 690.686 426.235 653.007 413.992 566.947C400.943 475.222 453.581 382.201 525.692 324.031C592.233 270.353 683.611 271.685 768.608 280.884Z" fill="#0181A8"/>
</g>
</g>
<defs>
<filter id="filter0_f_1_110" x="-626" y="-631" width="2855.1" height="2430.28" filterUnits="userSpaceOnUse" color-interpolation-filters="sRGB">
<feFlood flood-opacity="0" result="BackgroundImageFix"/>
<feBlend mode="normal" in="SourceGraphic" in2="BackgroundImageFix" result="shape"/>
<feGaussianBlur stdDeviation="200" result="effect1_foregroundBlur_1_110"/>
</filter>
</defs>
</svg>
