<svg width="1920" height="1080" viewBox="0 0 1920 1080" fill="none" xmlns="http://www.w3.org/2000/svg">
<g clip-path="url(#clip0_56_390)">
<rect x="1920" y="1080" width="1920" height="1745" transform="rotate(-180 1920 1080)" fill="#1D1D1D"/>
<g opacity="0.2" filter="url(#filter0_f_56_390)">
<path fill-rule="evenodd" clip-rule="evenodd" d="M-287.126 859.571C-463.921 877.481 -665.564 869.903 -796.938 806.899C-930.655 742.772 -932.53 640.205 -939.704 546.611C-947.3 447.513 -996.911 322.489 -838.465 265.12C-680.627 207.971 -480.591 312.196 -287.126 310.329C-85.1371 308.381 107.909 205.06 285.451 254.277C479.518 308.075 619.477 437.322 565.217 546.611C512.886 652.015 226.782 657.224 53.8748 720.711C-68.8337 765.767 -138.87 844.553 -287.126 859.571Z" fill="url(#paint0_linear_56_390)"/>
</g>
<g opacity="0.2" filter="url(#filter1_f_56_390)">
<path fill-rule="evenodd" clip-rule="evenodd" d="M1897.19 741.466C1856.66 730.18 1830.28 700.244 1792.94 682.878C1751.95 663.82 1689.98 669.316 1667.72 634.753C1645.68 600.529 1676.56 559.288 1689.26 521.882C1700.32 489.272 1717.68 460.403 1737 430.614C1761.79 392.38 1771.52 340.943 1818.55 322.503C1865.62 304.051 1924.37 318.381 1969.96 339.281C2011.68 358.413 2027.25 399.856 2056.21 431.473C2083.07 460.8 2121.63 482.919 2134.03 518.4C2147.35 556.52 2139.59 596.64 2127.36 635.016C2113.23 679.334 2106 734.538 2058.07 756.705C2009.85 779.009 1949.47 756.021 1897.19 741.466Z" fill="url(#paint1_linear_56_390)"/>
</g>
<g opacity="0.2" filter="url(#filter2_f_56_390)">
<ellipse cx="960.5" cy="1135" rx="533.5" ry="210" fill="url(#paint2_linear_56_390)"/>
</g>
<g opacity="0.2" filter="url(#filter3_f_56_390)">
<ellipse cx="960.5" cy="0.500122" rx="466.5" ry="183.5" fill="url(#paint3_linear_56_390)"/>
</g>
</g>
<defs>
<filter id="filter0_f_56_390" x="-1453" y="-259" width="2530" height="1627" filterUnits="userSpaceOnUse" color-interpolation-filters="sRGB">
<feFlood flood-opacity="0" result="BackgroundImageFix"/>
<feBlend mode="normal" in="SourceGraphic" in2="BackgroundImageFix" result="shape"/>
<feGaussianBlur stdDeviation="250" result="effect1_foregroundBlur_56_390"/>
</filter>
<filter id="filter1_f_56_390" x="1260" y="-85.9999" width="1281" height="1252" filterUnits="userSpaceOnUse" color-interpolation-filters="sRGB">
<feFlood flood-opacity="0" result="BackgroundImageFix"/>
<feBlend mode="normal" in="SourceGraphic" in2="BackgroundImageFix" result="shape"/>
<feGaussianBlur stdDeviation="200" result="effect1_foregroundBlur_56_390"/>
</filter>
<filter id="filter2_f_56_390" x="-173" y="325" width="2267" height="1620" filterUnits="userSpaceOnUse" color-interpolation-filters="sRGB">
<feFlood flood-opacity="0" result="BackgroundImageFix"/>
<feBlend mode="normal" in="SourceGraphic" in2="BackgroundImageFix" result="shape"/>
<feGaussianBlur stdDeviation="300" result="effect1_foregroundBlur_56_390"/>
</filter>
<filter id="filter3_f_56_390" x="-106" y="-783" width="2133" height="1567" filterUnits="userSpaceOnUse" color-interpolation-filters="sRGB">
<feFlood flood-opacity="0" result="BackgroundImageFix"/>
<feBlend mode="normal" in="SourceGraphic" in2="BackgroundImageFix" result="shape"/>
<feGaussianBlur stdDeviation="300" result="effect1_foregroundBlur_56_390"/>
</filter>
<linearGradient id="paint0_linear_56_390" x1="-612.058" y1="938.818" x2="-389.539" y2="139.728" gradientUnits="userSpaceOnUse">
<stop offset="0.00409482" stop-color="#00B0BE"/>
<stop offset="1" stop-color="#0181A8"/>
</linearGradient>
<linearGradient id="paint1_linear_56_390" x1="1767.19" y1="817.052" x2="2048.74" y2="376.111" gradientUnits="userSpaceOnUse">
<stop offset="0.00409482" stop-color="#00B0BE"/>
<stop offset="1" stop-color="#0181A8"/>
</linearGradient>
<linearGradient id="paint2_linear_56_390" x1="1256.23" y1="877.562" x2="1112.26" y2="1415.84" gradientUnits="userSpaceOnUse">
<stop offset="0.00409482" stop-color="#00B0BE"/>
<stop offset="1" stop-color="#0181A8"/>
</linearGradient>
<linearGradient id="paint3_linear_56_390" x1="1219.09" y1="-224.452" x2="1093.36" y2="245.941" gradientUnits="userSpaceOnUse">
<stop offset="0.00409482" stop-color="#00B0BE"/>
<stop offset="1" stop-color="#0181A8"/>
</linearGradient>
<clipPath id="clip0_56_390">
<rect width="1920" height="1080" fill="white" transform="translate(1920 1080) rotate(-180)"/>
</clipPath>
</defs>
</svg>
